# xmcd
#
# Track frame offsets: 
#        150
#        20487
#        37032
#        54677
#        71893
#        88407
#        106314
#        124303
#        143295
#        158496
#        171807
#
# Disc length: 2511 seconds
#
# Revision: 3
# Processed by: cddbd v1.4PL0 Copyright (c) Steve Scherf et al.
# Submitted via: ExactAudioCopy v0.95a3
#
DISCID=9609cd0b
DTITLE=Jannis Parios - Alli mia fora
DYEAR=2001
DGENRE=GREEK
TTITLE0=Mou' chis kani ti soi mou kolasi
TTITLE1=To' cha fantasi
TTITLE2=Kinthinego
TTITLE3=Diskoli keri
TTITLE4=Paranoma
TTITLE5=Mi rotas tous allous
TTITLE6=Alli mia fora
TTITLE7=Ta thika mou vpadia
TTITLE8=An m' agapas
TTITLE9=Na kaounne i echthri mas
TTITLE10=Oli i soi mou
EXTD=
EXTT0=r6urtu
EXTT1=
EXTT2=
EXTT3=
EXTT4=
EXTT5=
EXTT6=
EXTT7=
EXTT8=
EXTT9=
EXTT10=
PLAYORDER=
